<svg version="1.1" xmlns="http://www.w3.org/2000/svg" style="display: block;" viewBox="0 0 2560 1664" width="2560" height="1664" preserveAspectRatio="none" xmlns:c2pa="http://c2pa.org/manifest"><metadata><c2pa:manifest>AAAMZ2p1bWIAAAAeanVtZGMycGEAEQAQgAAAqgA4m3EDYzJwYQAAAAxBanVtYgAAAEdqdW1kYzJtYQARABCAAACqADibcQN1cm46YzJwYTo5NmE4ODgzZi03YjcwLTRkZmYtODdkNC03MjU3YTkzZWQ3NjgAAAAB4mp1bWIAAAApanVtZGMyYXMAEQAQgAAAqgA4m3EDYzJwYS5hc3NlcnRpb25zAAAAAO1qdW1iAAAAQWp1bWRjYm9yABEAEIAAAKoAOJtxE2MycGEuYWN0aW9ucy52MgAAAAAYYzJzaGN0aUyMH3dFqhw9ZkM0X/YAAACkY2JvcqFnYWN0aW9uc4GjZmFjdGlvbmxjMnBhLmNyZWF0ZWRxZGlnaXRhbFNvdXJjZVR5cGV4Rmh0dHA6Ly9jdi5pcHRjLm9yZy9uZXdzY29kZXMvZGlnaXRhbHNvdXJjZXR5cGUvdHJhaW5lZEFsZ29yaXRobWljTWVkaWFrZGVzY3JpcHRpb252Q3JlYXRlZCBieSBSZWNyYWZ0IEFJLgAAAMRqdW1iAAAAQGp1bWRjYm9yABEAEIAAAKoAOJtxE2MycGEuaGFzaC5kYXRhAAAAABhjMnNoCZd5u6nciuex54r28EWxGQAAAHxjYm9ypWpleGNsdXNpb25zgaJlc3RhcnQY22ZsZW5ndGgZEIxkbmFtZW5qdW1iZiBtYW5pZmVzdGNhbGdmc2hhMjU2ZGhhc2hYILhZNkCAIC4/1nDY+kiafGyRr2X/AuNK1rG2wBqh5/QXY3BhZEkAAAAAAAAAAAAAAAI0anVtYgAAACdqdW1kYzJjbAARABCAAACqADibcQNjMnBhLmNsYWltLnYyAAAAAgVjYm9ypmppbnN0YW5jZUlEeCx4bXA6aWlkOmE3MjdlNDI3LWQ2OTUtNDY4YS1iNTc3LTM5NTU1OGEwMzkwY3RjbGFpbV9nZW5lcmF0b3JfaW5mb6NkbmFtZWpyZWNyYWZ0LmFpZ3ZlcnNpb254KDgxY2U4MmUyYzVjM2NiZmJlOGM2ZmJlMTc5ZDVmOGQ5MWM0MDljZTF3b3JnLmNvbnRlbnRhdXRoLmMycGFfcnNmMC45MC43aXNpZ25hdHVyZXhNc2VsZiNqdW1iZj0vYzJwYS91cm46YzJwYTo5NmE4ODgzZi03YjcwLTRkZmYtODdkNC03MjU3YTkzZWQ3NjgvYzJwYS5zaWduYXR1cmVyY3JlYXRlZF9hc3NlcnRpb25zgqJjdXJseCpzZWxmI2p1bWJmPWMycGEuYXNzZXJ0aW9ucy9jMnBhLmFjdGlvbnMudjJkaGFzaFggE56M6vGSvzj0rfDC1i91hYo49gKYzWgeZqKsd6h2QJCiY3VybHgpc2VsZiNqdW1iZj1jMnBhLmFzc2VydGlvbnMvYzJwYS5oYXNoLmRhdGFkaGFzaFggo1u94sVC1PkEYMzAV+mizacdYyTqopAm5DsvkKbsrpFoZGM6dGl0bGV4GlJlY3JhZnQgQUkgR2VuZXJhdGVkIEltYWdlY2FsZ2ZzaGEyNTYAAAfcanVtYgAAAChqdW1kYzJjcwARABCAAACqADibcQNjMnBhLnNpZ25hdHVyZQAAAAesY2JvctKEWQOwogEmGCGCWQHnMIIB4zCCAYmgAwIBAgIJALfeWmNDUW56MAoGCCqGSM49BAMCMEAxHzAdBgNVBAMMFlJlY3JhZnQgU3RhZ2luZyBEZXYgQ0ExEDAOBgNVBAoMB1JlY3JhZnQxCzAJBgNVBAYTAlVTMB4XDTI2MDYxMjE5NDM1MFoXDTI3MDYxMjE5NDM1MFowNzELMAkGA1UEBhMCVVMxEzARBgNVBAoTClJlY3JhZnQgQUkxEzARBgNVBAMTCnJlY3JhZnQuYWkwWTATBgcqhkjOPQIBBggqhkjOPQMBBwNCAARKaTVbACsg/DeG3LeOxYdID/VA6EFG73E6Oknb+KIiCFJygRUz4ueN2z/t2qYb6CIUvS8RvgOiiClfoqsYtw81o3UwczAMBgNVHRMBAf8EAjAAMA4GA1UdDwEB/wQEAwIGwDATBgNVHSUEDDAKBggrBgEFBQcDBDAdBgNVHQ4EFgQULzHpBen96SL1y4IPHa8MkMshXf0wHwYDVR0jBBgwFoAUAgsqOBrKqpdK//m/kxZo7ZR4ebcwCgYIKoZIzj0EAwIDSAAwRQIgU8hKW0aXvvk8SQgVFNkax69Ym9ae8GsT2RZTQw+B51ACIQC0D4BkEoRD4N0r2ZRkNy0HZaW3WICy/QZGN95ilF4yzFkBvTCCAbkwggFfoAMCAQICCQCc+Wg7T6ATbzAKBggqhkjOPQQDAjBAMR8wHQYDVQQDDBZSZWNyYWZ0IFN0YWdpbmcgRGV2IENBMRAwDgYDVQQKDAdSZWNyYWZ0MQswCQYDVQQGEwJVUzAeFw0yNjA2MTIxOTQwMTZaFw0yODA2MTExOTQwMTZaMEAxHzAdBgNVBAMMFlJlY3JhZnQgU3RhZ2luZyBEZXYgQ0ExEDAOBgNVBAoMB1JlY3JhZnQxCzAJBgNVBAYTAlVTMFkwEwYHKoZIzj0CAQYIKoZIzj0DAQcDQgAEQ9IQBlcVbKaKPYrQSfOhL/00s7xUDC7RinIuLO/I1k99y9yh6oWF9kPxaP+tx1v1PeOL3yrVquJ730H0ZGiDyqNCMEAwDwYDVR0TAQH/BAUwAwEB/zAOBgNVHQ8BAf8EBAMCAYYwHQYDVR0OBBYEFAILKjgayqqXSv/5v5MWaO2UeHm3MAoGCCqGSM49BAMCA0gAMEUCIFQwNImLlYDeQhjgF+ZiqTbgcuzSqmOJw3Q2lQ/hu83FAiEA9O8cLm/xfoVLqB4jtdbuHzi3WL+p2RN+DRGkwpYswVuhY3BhZFkDpAAAAAAAAAAAAAAAAAAAAAAAAAAAAAAAAAAAAAAAAAAAAAAAAAAAAAAAAAAAAAAAAAAAAAAAAAAAAAAAAAAAAAAAAAAAAAAAAAAAAAAAAAAAAAAAAAAAAAAAAAAAAAAAAAAAAAAAAAAAAAAAAAAAAAAAAAAAAAAAAAAAAAAAAAAAAAAAAAAAAAAAAAAAAAAAAAAAAAAAAAAAAAAAAAAAAAAAAAAAAAAAAAAAAAAAAAAAAAAAAAAAAAAAAAAAAAAAAAAAAAAAAAAAAAAAAAAAAAAAAAAAAAAAAAAAAAAAAAAAAAAAAAAAAAAAAAAAAAAAAAAAAAAAAAAAAAAAAAAAAAAAAAAAAAAAAAAAAAAAAAAAAAAAAAAAAAAAAAAAAAAAAAAAAAAAAAAAAAAAAAAAAAAAAAAAAAAAAAAAAAAAAAAAAAAAAAAAAAAAAAAAAAAAAAAAAAAAAAAAAAAAAAAAAAAAAAAAAAAAAAAAAAAAAAAAAAAAAAAAAAAAAAAAAAAAAAAAAAAAAAAAAAAAAAAAAAAAAAAAAAAAAAAAAAAAAAAAAAAAAAAAAAAAAAAAAAAAAAAAAAAAAAAAAAAAAAAAAAAAAAAAAAAAAAAAAAAAAAAAAAAAAAAAAAAAAAAAAAAAAAAAAAAAAAAAAAAAAAAAAAAAAAAAAAAAAAAAAAAAAAAAAAAAAAAAAAAAAAAAAAAAAAAAAAAAAAAAAAAAAAAAAAAAAAAAAAAAAAAAAAAAAAAAAAAAAAAAAAAAAAAAAAAAAAAAAAAAAAAAAAAAAAAAAAAAAAAAAAAAAAAAAAAAAAAAAAAAAAAAAAAAAAAAAAAAAAAAAAAAAAAAAAAAAAAAAAAAAAAAAAAAAAAAAAAAAAAAAAAAAAAAAAAAAAAAAAAAAAAAAAAAAAAAAAAAAAAAAAAAAAAAAAAAAAAAAAAAAAAAAAAAAAAAAAAAAAAAAAAAAAAAAAAAAAAAAAAAAAAAAAAAAAAAAAAAAAAAAAAAAAAAAAAAAAAAAAAAAAAAAAAAAAAAAAAAAAAAAAAAAAAAAAAAAAAAAAAAAAAAAAAAAAAAAAAAAAAAAAAAAAAAAAAAAAAAAAAAAAAAAAAAAAAAAAAAAAAAAAAAAAAAAAAAAAAAAAAAAAAAAAAAAAAAAAAAAAAAAAAAAAAAAAAAAAAAAAAAAAAAAAAAAAAAAAAAAAAAAAAAAAAAAAAAAAAAAAAAAAAAAAAAAAAAAAAAAAAAAAAAAAAA9lhAb6Aifuda5Tt+DmkhdT37mqPCiE3yxnTTH/7V5fuMkmkZtLW6LAifn/67xnuN3HBf3NxvV41gzWhPiDXB1OZvjQ==</c2pa:manifest></metadata>
<path transform="translate(0,0)" fill="rgb(255,255,255)" d="M 0 0 L 2560 0 L 2560 1664 L 0 1664 L 0 0 z"/>
<path transform="translate(0,0)" fill="rgb(26,26,23)" d="M 1075.88 437.264 C 1085.73 436.676 1095.22 438.223 1103.97 442.933 C 1111.41 446.925 1117.62 452.869 1121.94 460.127 C 1128.11 470.506 1145.26 529.768 1150.19 545.859 L 1234.51 545.775 C 1239.91 524.125 1242.4 503.462 1262.35 490.636 C 1271.23 484.851 1281.65 481.871 1292.25 482.081 C 1302.67 482.212 1342.68 491.864 1354.24 494.276 C 1389.34 501.6 1425.01 509.147 1460.09 516.815 C 1482.34 521.678 1489.54 526.5 1501.53 545.726 L 1696.75 545.819 L 1751.59 545.734 C 1762.59 545.727 1779.87 545.245 1790.17 547.154 C 1804.38 549.744 1817.45 556.626 1827.63 566.873 C 1843.77 582.857 1849.06 600.796 1849.18 622.958 L 1849.17 965.504 L 1849.17 1058.53 C 1849.25 1092.78 1854.62 1127.03 1828.21 1153.32 C 1818.33 1163.15 1805.79 1169.88 1792.14 1172.69 C 1776.57 1175.87 1720.74 1174.59 1702.95 1174.54 L 1543.75 1174.48 L 995.314 1174.51 L 845.862 1174.51 C 830.587 1174.51 787.001 1175.48 773.122 1173.68 C 757.515 1171.55 743.024 1164.39 731.836 1153.31 C 714.828 1136.43 711.168 1120.97 710.939 1098.08 L 710.88 760.058 L 710.908 657.776 C 710.916 647.256 710.316 616.212 711.721 606.796 C 713.951 591.757 720.959 577.834 731.711 567.086 C 755.744 542.934 782.114 545.722 812.737 545.749 L 862.53 545.801 L 862.335 544.936 C 853.1 502.345 884.51 491.656 917.396 482.131 L 964.737 468.479 L 1034.3 448.484 C 1046.9 444.882 1063.33 439.686 1075.88 437.264 z"/>
<path transform="translate(0,0)" fill="rgb(250,243,224)" d="M 1489.35 639.059 L 1844.31 639.195 L 1844.5 964.852 L 1844.63 1060.82 C 1844.66 1091.54 1849.62 1125.92 1825.84 1149.3 C 1806.46 1168.34 1790.44 1169.89 1764.69 1170.01 L 1090.68 1170 L 881.038 1169.91 L 815.123 1170 C 802.774 1170.01 785.942 1170.52 773.992 1169.15 C 759.242 1167.37 745.517 1160.69 735.017 1150.18 C 710.303 1125.75 715.501 1094.82 715.517 1062.71 L 715.606 968.668 L 715.635 639.221 L 891.103 639.238 C 904.881 682.623 918.388 726.093 931.624 769.646 C 938.056 790.334 945.705 826.231 960.896 840.831 C 983.825 862.868 1023.21 845.855 1049.59 838.354 L 1134.32 814.098 C 1148.36 810.059 1165.56 804.598 1179.57 801.257 C 1188.16 848.007 1219.27 847.323 1258.73 856.489 C 1264.8 857.898 1271 859.086 1277.09 860.372 L 1370.04 880.235 C 1364.08 893.563 1358.07 911.525 1352.59 925.506 C 1343.55 948.56 1334.82 972.57 1326.09 995.675 C 1320.25 1011.11 1318.24 1025.84 1325.96 1040.73 C 1328.73 1046.77 1337.49 1057.98 1343.77 1060.58 C 1399.86 1083.78 1458.32 1102.9 1515.2 1124.21 C 1532.2 1130.58 1546.64 1131.7 1563.17 1123.66 C 1570.49 1120.11 1578.32 1113.23 1582.49 1105.87 C 1596.28 1072.73 1609.18 1037.73 1621.92 1004.21 L 1667.28 884.788 C 1674.93 864.714 1682.66 845.049 1690.14 824.627 C 1699.1 805.865 1689.55 774.23 1670.36 764.963 C 1653.6 756.871 1626.79 747.606 1608.41 741.266 C 1578.31 730.879 1547.71 718.096 1517.37 708.531 C 1504.06 702.573 1489.63 697.497 1475.11 696.073 C 1480.04 677.115 1484.79 658.11 1489.35 639.059 z"/>
<path transform="translate(0,0)" fill="rgb(143,255,0)" d="M 1458.93 703.221 C 1482.68 697.199 1494.31 704.333 1517.05 712.424 L 1617.85 749.258 C 1633.17 754.82 1653.65 760.608 1667.39 768.534 C 1703.12 789.143 1685.55 825.13 1675.27 852.159 L 1651.27 914.584 C 1628.88 972.802 1607.11 1031.32 1584.89 1089.61 C 1582.62 1095.57 1579.69 1103.1 1575.68 1108.01 C 1561.68 1125.19 1540.84 1128.72 1520.82 1121.56 C 1464.95 1101.57 1409.37 1081.5 1353.79 1060.77 C 1335.65 1054.02 1322.55 1033.62 1325.63 1014.2 C 1327.89 999.915 1334.63 984.755 1339.78 971.196 L 1362.82 911.148 C 1364.37 907.139 1370.93 890.555 1371.79 886.609 L 1375.67 876.929 L 1375.91 876.234 C 1378.22 869.633 1380.94 862.626 1383.6 856.044 C 1401.9 810.833 1416.91 763.629 1437.24 719.409 C 1440.23 712.908 1452.68 706.278 1458.93 703.221 z"/>
<path transform="translate(0,0)" fill="rgb(250,243,224)" d="M 1079.31 441.346 C 1094.23 442.277 1113.19 449.065 1119.38 464.288 C 1125.81 480.093 1130.78 498.209 1135.92 514.582 L 1168.1 618.363 C 1177.21 647.111 1186.15 675.91 1194.93 704.757 C 1198.13 715.06 1205.91 738.06 1207.9 747.966 C 1210.09 758.91 1207.82 770.276 1201.58 779.533 C 1198.09 784.695 1190.35 792.186 1184.63 794.238 C 1161.66 802.488 1135.05 809.405 1111.58 816.122 L 1039.68 836.578 C 1026.14 840.387 1010.05 845.351 996.592 848.095 C 988.186 848.204 984.189 847.763 976.14 844.797 C 955.971 837.365 952.108 820.472 946.323 801.926 C 942.236 788.821 938.2 775.626 934.177 762.521 L 903.157 662.728 L 878.015 581.226 C 875.176 571.958 866.647 545.52 865.613 536.913 C 864.364 526.391 867.4 515.808 874.037 507.548 C 885.657 493.036 906.408 489.749 923.601 484.806 L 982.414 467.941 L 1040.06 451.283 C 1051.09 448.071 1068.4 442.448 1079.31 441.346 z"/>
<path transform="translate(0,0)" fill="rgb(217,215,204)" d="M 1199.17 703.111 C 1214.21 641.173 1230.83 575.967 1248.23 514.45 C 1253.84 494.644 1280.23 483.116 1300.23 487.256 C 1331.46 493.721 1363.57 500.542 1395.23 507.273 L 1442.69 517.441 C 1462.77 521.804 1480.28 523.045 1493.08 540.599 C 1509.1 562.561 1497.91 584.175 1492.9 607.465 C 1486.55 636.969 1476.01 667.345 1471.04 696.885 C 1457.84 697.571 1445.47 703.534 1436.71 713.432 C 1427.76 723.38 1414.16 763.84 1408.57 778.611 L 1371.56 875.834 C 1367.47 875.802 1327.37 866.833 1321.38 865.516 C 1288.78 858.27 1255.96 851.962 1223.49 844.16 C 1198.5 838.157 1188.24 824.254 1183.61 800.041 C 1228.56 776.72 1210.92 740.85 1199.17 703.111 z"/>
<path transform="translate(0,0)" fill="rgb(250,243,224)" d="M 1179.66 639.302 C 1188.01 639.282 1203.08 638.764 1210.59 639.477 C 1206.71 653.826 1203.17 668.565 1199.5 683.021 C 1198.79 686.022 1198.11 689.175 1196.86 692 L 1196.22 693.484 C 1193.25 684.321 1181.05 647.017 1179.66 639.302 z"/>
<path transform="translate(0,0)" fill="rgb(250,243,224)" d="M 804.371 581.406 C 810.645 579.526 817.265 583.039 819.224 589.289 C 821.183 595.54 817.752 602.203 811.527 604.239 C 807.43 605.579 802.929 604.613 799.745 601.708 C 796.56 598.804 795.183 594.411 796.141 590.209 C 797.098 586.007 800.242 582.644 804.371 581.406 z"/>
<path transform="translate(0,0)" fill="rgb(250,243,224)" d="M 762.668 581.434 C 768.909 579.232 775.749 582.525 777.921 588.776 C 780.093 595.027 776.768 601.852 770.507 603.994 C 764.288 606.123 757.518 602.825 755.36 596.615 C 753.203 590.406 756.469 583.62 762.668 581.434 z"/>
<path transform="translate(0,0)" fill="rgb(250,243,224)" d="M 845.05 581.49 C 849.126 580.021 853.679 580.882 856.938 583.738 C 860.197 586.594 861.648 590.994 860.726 595.228 C 859.805 599.462 856.657 602.862 852.506 604.105 C 846.326 605.957 839.796 602.552 837.776 596.425 C 835.756 590.298 838.981 583.677 845.05 581.49 z"/>
</svg>